<svg id="Layer_1" data-name="Layer 1" xmlns="http://www.w3.org/2000/svg" viewBox="0 0 500 500"><defs><style>.cls-1{fill:#d087ba;}.cls-2{fill:#c37ab2;}.cls-3{fill:#dbdada;}.cls-4{fill:#fff;}.cls-5{fill:#ec1e24;}.cls-6{fill:none;}</style></defs><title>asset</title><rect class="cls-1" x="44.55" y="266.95" width="85.4" height="99.6"/><rect class="cls-2" x="129.95" y="266.95" width="85.37" height="99.6"/><rect class="cls-3" x="251.55" y="201.39" width="40.08" height="40.12"/><polygon class="cls-3" points="372.28 241.51 372.28 285.91 424.44 285.91 424.44 322.59 458.52 322.59 458.52 404.07 413.24 404.07 413.24 365.27 378.32 365.27 378.32 322.59 334.32 322.59 334.32 241.51 332.16 241.51 332.16 201.39 334.32 201.39 334.32 195.79 294.24 195.79 294.24 111.7 251.55 111.7 251.55 75.5 334.32 75.5 334.32 119.47 381.32 119.47 381.32 148.79 418.4 148.79 418.4 195.35 458.52 195.35 458.52 241.51 372.28 241.51"/><rect class="cls-4" x="48.43" y="201.39" width="40.12" height="40.12"/><polygon class="cls-4" points="215.32 266.95 215.32 366.55 212.72 366.55 212.72 285.07 44.55 285.07 44.55 266.95 215.32 266.95"/><rect class="cls-4" x="251.55" y="201.39" width="40.08" height="40.12"/><rect class="cls-4" x="332.16" y="201.39" width="2.16" height="40.12"/><rect class="cls-4" x="458.52" y="404.07" width="17.48" height="58.57"/><rect x="458.52" y="322.59" width="17.48" height="140.06"/><rect x="251.55" y="448.07" width="40.08" height="14.58"/><rect class="cls-5" x="88.55" y="366.55" width="41.4" height="41.4"/><rect x="48.43" y="201.39" width="40.12" height="40.12"/><rect x="251.55" y="201.39" width="40.08" height="40.12"/><rect class="cls-1" x="332.16" y="201.39" width="40.12" height="40.12"/><rect x="44.55" y="285.07" width="42.68" height="42.68"/><rect x="169.4" y="285.05" width="42.69" height="42.69"/><path class="cls-4" d="M413.24,404.07v-38.8H378.32V322.59h-44V241.51h-2.16V201.39h2.16v-5.6H294.24V111.7H251.55V75.5h-163l-1.32,46.56H44.55V267H215.32v99.6h36.23v81.52h40.09v14.58H458.52V404.07ZM88.55,241.51H48.43V201.39H88.55Zm203.09,0H251.55V201.39h40.09Z"/><rect class="cls-6" x="48.43" y="201.39" width="40.12" height="40.12"/><rect class="cls-6" x="251.55" y="201.39" width="40.08" height="40.12"/><polygon class="cls-6" points="215.32 266.95 215.32 366.55 129.95 366.55 129.95 407.95 88.55 407.95 88.55 366.55 44.55 366.55 44.55 266.95 215.32 266.95"/><rect class="cls-6" x="251.55" y="448.07" width="40.08" height="14.58"/><polygon class="cls-6" points="476 322.59 476 462.65 458.52 462.65 458.52 404.07 413.24 404.07 413.24 365.27 378.32 365.27 378.32 322.59 334.32 322.59 334.32 241.51 332.16 241.51 332.16 201.39 334.32 201.39 334.32 195.79 294.24 195.79 294.24 111.7 251.55 111.7 251.55 75.5 334.32 75.5 334.32 119.47 381.32 119.47 381.32 148.79 418.4 148.79 418.4 195.35 458.52 195.35 458.52 241.51 372.28 241.51 372.28 285.91 424.44 285.91 424.44 322.59 476 322.59"/></svg>