<svg id="Layer_1" data-name="Layer 1" xmlns="http://www.w3.org/2000/svg" viewBox="0 0 1920 1080"><defs><style>.cls-1{fill:#292944;}</style></defs><title>asset</title><rect class="cls-1" x="670.07" y="464.24" width="624.63" height="202.92"/><path class="cls-1" d="M1772,565.46a20.43,20.43,0,0,1-20.36,20.38H1431a20.39,20.39,0,0,0,0,40.77h107.86a20.38,20.38,0,0,1,0,40.75H1294.7V464.24h345.52a20.38,20.38,0,0,1,0,40.75H1492.67a20.36,20.36,0,0,0,5.09,40.08h253.88A20.43,20.43,0,0,1,1772,565.46Z"/><path class="cls-1" d="M195,566.14a20.43,20.43,0,0,1,20.36-20.38H536A20.39,20.39,0,0,0,536,505H428.18a20.46,20.46,0,0,1-20.39-20.39,20.45,20.45,0,0,1,20.39-20.36H672.3V667.36H326.78a20.38,20.38,0,0,1,0-40.75H474.33a20.36,20.36,0,0,0-5.09-40.08H215.36A20.43,20.43,0,0,1,195,566.14Z"/></svg>