<svg id="Layer_1" data-name="Layer 1" xmlns="http://www.w3.org/2000/svg" viewBox="0 0 1920 1080"><defs><style>.cls-1{fill:#292944;}</style></defs><title>asset</title><path class="cls-1" d="M1088.11,421.61V774.93h360.74a25.27,25.27,0,0,0,0-50.53H1286.34a25.28,25.28,0,1,1,0-50.56h208.6a25.28,25.28,0,0,0,5.23-50h-86.7a25.28,25.28,0,1,1,0-50.56H1766.1A25.39,25.39,0,0,0,1791.41,548a25.39,25.39,0,0,0-25.31-25.28H1584.35a25.27,25.27,0,1,1,0-50.54h22.21a25.28,25.28,0,0,0,0-50.56Z"/><path class="cls-1" d="M1849,447a25.35,25.35,0,0,1-25.25,25.29h-397.7a25.28,25.28,0,1,0,0,50.56h133.77a25.27,25.27,0,0,1,0,50.53H1257.06V321.49h428.51a25.27,25.27,0,0,1,0,50.53h-183a25.42,25.42,0,0,0-11.55,6.61,25.23,25.23,0,0,0,17.86,43.1h314.86A25.33,25.33,0,0,1,1849,447Z"/><path class="cls-1" d="M321.7,447.87A25.37,25.37,0,0,1,347,422.58H744.66a25.28,25.28,0,1,0,0-50.56H610.89a25.27,25.27,0,0,1,0-50.53H913.65v251.9H485.13a25.27,25.27,0,0,1,0-50.53h183a25.25,25.25,0,0,0-6.31-49.71H347A25.33,25.33,0,0,1,321.7,447.87Z"/><path class="cls-1" d="M213.77,649.12A25.37,25.37,0,0,1,239,623.84H636.73a25.28,25.28,0,1,0,0-50.56H503a25.27,25.27,0,0,1,0-50.53H805.72v251.9H377.21a25.27,25.27,0,0,1,0-50.53h183a25.42,25.42,0,0,0,11.55-6.61,25.11,25.11,0,0,0,7.42-17.82,25.37,25.37,0,0,0-25.28-25.29H239A25.33,25.33,0,0,1,213.77,649.12Z"/><rect class="cls-1" x="805.58" y="322.17" width="321.06" height="452.95"/><rect class="cls-1" x="913.49" y="322.17" width="401" height="305.08"/></svg>