<svg id="Layer_1" data-name="Layer 1" xmlns="http://www.w3.org/2000/svg" viewBox="0 0 500 500"><defs><style>.cls-1{fill:#dbdada;}.cls-2{fill:#d087ba;}.cls-3{fill:#c37ab2;}.cls-4{fill:#fff;}.cls-5{fill:#ec1e24;}</style></defs><title>asset</title><rect class="cls-1" x="443.38" y="266.44" width="32.59" height="35.66"/><rect class="cls-1" x="464.31" y="297.88" width="11.65" height="151.83"/><rect class="cls-2" x="10.13" y="155.89" width="25.3" height="23.13"/><rect class="cls-3" x="35.44" y="155.89" width="25.3" height="23.13"/><polygon class="cls-1" points="71.48 92.76 96.01 92.76 96.01 105.79 109.94 105.79 109.94 114.48 120.94 114.48 120.94 128.28 132.82 128.28 132.82 141.96 107.26 141.96 107.26 155.12 122.72 155.12 122.72 165.99 132.82 165.99 132.82 191.29 71.48 191.29 71.48 92.76"/><polygon class="cls-4" points="23.17 92.76 71.48 92.76 71.48 103.49 84.13 103.49 84.13 128.41 96.01 128.41 96.01 165.99 109.05 165.99 109.05 178.64 119.4 178.64 119.4 190.14 144.32 190.14 144.32 202.41 168.09 202.41 168.09 214.68 195.31 214.68 195.31 203.56 206.43 203.56 206.43 191.29 217.94 191.29 217.94 179.02 475.96 179.02 475.96 276.4 464.46 276.4 464.46 288.67 451.04 288.67 451.04 449.7 439.16 449.7 439.16 302.09 427.66 302.09 342.16 302.09 342.16 313.98 265.86 313.98 265.86 301.33 206.05 301.33 206.05 313.21 194.16 313.21 194.16 325.48 181.9 325.48 181.9 313.6 158.13 313.6 158.13 301.71 107.9 301.71 107.9 449.7 96.01 449.7 96.01 215.83 83.36 215.83 83.36 203.18 71.48 203.18 71.48 179.02 59.97 179.02 59.97 154.87 10.13 154.87 10.13 106.56 22.78 106.56 23.17 92.76"/><path d="M132.82,166H157V179.4h61s-.39,39.49,0,39.88-53.3,0-53.3,0H132.82Z"/><path d="M280.43,179v24.16h13.42v11.5h11.88s-.57,13.22,0,12.65,97.39,0,97.39,0V216.59h24.54V203.18h13V179Z"/><polygon points="292.7 252.25 328.74 252.25 328.74 239.22 378.58 239.22 378.58 252.25 390.47 252.25 390.47 275.25 378.58 275.25 378.58 287.91 354.04 287.91 354.04 302.09 305.73 302.09 305.73 290.21 280.43 290.21 280.43 265.29 292.7 265.29 292.7 252.25"/><polygon points="71.48 203.18 71.48 227.35 82.98 227.35 82.98 254.17 96.01 254.17 96.01 215.83 83.36 215.83 83.36 203.18 71.48 203.18"/><polygon points="132.82 239.22 147.01 239.22 147.01 227.35 207.2 227.35 207.2 239.22 219.47 239.22 219.47 252.25 230.2 252.25 230.2 262.6 194.16 262.6 194.16 274.1 143.94 274.1 143.94 264.52 132.82 264.52 132.82 239.22"/><rect x="475.96" y="239.21" width="13.04" height="35.66"/><rect class="cls-1" x="475.96" y="190.91" width="13.04" height="48.31"/><path d="M427.66,302.09H415.39v9.59h-13v13.8H379.73V300.94h10.74v-13.8h37.19Z"/><polygon class="cls-2" points="255.89 323.56 255.89 333.92 268.16 333.92 268.16 344.27 280.43 344.27 280.43 360.37 291.93 360.37 291.93 345.42 307.27 345.42 307.27 358.84 316.47 358.84 316.47 336.6 328.36 336.6 328.36 323.56 255.89 323.56"/><polygon class="cls-3" points="366.69 322.41 366.69 335.06 354.04 335.06 354.04 346.18 341.77 346.18 341.77 360.37 331.81 360.37 331.81 347.72 316.47 347.72 316.47 336.6 328.36 336.6 328.36 323.56 366.69 322.41"/><rect class="cls-5" x="23.17" y="179.02" width="12.27" height="12.27"/><rect class="cls-1" x="120.93" y="302.09" width="11.89" height="147.61"/><rect x="11.28" y="130.07" width="11.89" height="11.89"/><rect x="71.48" y="130.07" width="11.89" height="11.89"/><rect class="cls-2" x="95.37" y="130.07" width="11.89" height="11.89"/><rect x="10.13" y="154.87" width="12.65" height="12.65"/><rect x="47.13" y="154.87" width="12.65" height="12.65"/><polygon class="cls-1" points="280.43 313.98 280.43 325.48 379.73 325.48 379.73 302.09 342.16 302.09 342.16 313.98 280.43 313.98"/><polygon points="194.16 325.48 280.43 325.48 280.43 313.98 265.86 313.98 265.86 301.33 206.05 301.33 206.05 313.21 194.16 313.21 194.16 325.48"/><rect x="96.01" y="449.51" width="12.27" height="12.27"/><rect x="120.96" y="449.51" width="12.27" height="12.27"/><rect x="438.75" y="448.49" width="12.27" height="12.27"/><rect x="463.7" y="448.49" width="12.27" height="12.27"/></svg>