<svg id="Layer_1" data-name="Layer 1" xmlns="http://www.w3.org/2000/svg" viewBox="0 0 1920 1080"><defs><style>.cls-1{fill:#292944;}</style></defs><title>asset</title><path class="cls-1" d="M542.87,391V627h-241a16.88,16.88,0,0,1,0-33.76H410.44a16.89,16.89,0,0,0,0-33.78H271.09a16.86,16.86,0,0,1-11.93-28.81,16.65,16.65,0,0,1,8.44-4.59h57.92a16.73,16.73,0,0,0,3.49-.37,16.89,16.89,0,0,0-3.49-33.41H89.94A17,17,0,0,1,73,475.39,17,17,0,0,1,89.94,458.5H211.36a16.88,16.88,0,1,0,0-33.76H196.52a16.89,16.89,0,0,1,0-33.77Z"/><path class="cls-1" d="M1264.17,627V391h241a16.88,16.88,0,0,1,0,33.75H1396.59a16.89,16.89,0,1,0,0,33.78h139.35a16.89,16.89,0,0,1,3.5,33.41h-57.92a16.89,16.89,0,1,0,0,33.78h235.57A17,17,0,0,1,1734,542.57a17,17,0,0,1-16.91,16.89H1595.68a16.88,16.88,0,1,0,0,33.76h14.83a16.89,16.89,0,0,1,0,33.78Z"/><rect class="cls-1" x="542.1" y="391" width="722.83" height="236.42"/></svg>