<svg id="Layer_1" data-name="Layer 1" xmlns="http://www.w3.org/2000/svg" viewBox="0 0 500 500"><defs><style>.cls-1{fill:#5a6888;}.cls-2{fill:#8a9bb4;}.cls-3{fill:#3a4468;}.cls-4{fill:#e15ca1;}.cls-5{fill:#9f5da2;}.cls-6{fill:#e1baa1;}.cls-7{fill:#bfcbdc;}.cls-8{fill:#edeeef;}.cls-9{fill:#8a9ab4;}.cls-10{fill:#eceff0;}</style></defs><title>Design Assets</title><rect class="cls-1" x="7" y="206.85" width="254.52" height="86.22"/><rect class="cls-2" x="7" y="217.08" width="243.63" height="7.04"/><rect class="cls-3" x="7" y="254.86" width="243.63" height="21.03"/><rect class="cls-4" x="15.08" y="212.38" width="14.29" height="73.69"/><rect class="cls-4" x="34.57" y="212.38" width="14.29" height="73.69"/><rect class="cls-4" x="54.07" y="212.38" width="14.29" height="73.69"/><rect class="cls-4" x="73.57" y="212.38" width="14.29" height="73.69"/><rect class="cls-4" x="93.06" y="212.38" width="14.29" height="73.69"/><rect class="cls-4" x="112.56" y="212.38" width="14.29" height="73.69"/><rect class="cls-4" x="132.05" y="212.38" width="14.29" height="73.69"/><rect class="cls-4" x="151.55" y="212.38" width="14.29" height="73.69"/><rect class="cls-4" x="171.04" y="212.38" width="14.29" height="73.69"/><rect class="cls-4" x="190.54" y="212.38" width="14.29" height="73.69"/><rect class="cls-4" x="210.03" y="212.38" width="14.29" height="73.69"/><rect class="cls-4" x="229.53" y="212.38" width="14.29" height="73.69"/><rect class="cls-5" x="15.08" y="261.81" width="14.29" height="14.07"/><rect class="cls-5" x="34.57" y="261.81" width="14.29" height="14.07"/><rect class="cls-5" x="54.07" y="261.81" width="14.29" height="14.07"/><rect class="cls-5" x="73.57" y="261.81" width="14.29" height="14.07"/><rect class="cls-5" x="93.06" y="261.81" width="14.29" height="14.07"/><rect class="cls-5" x="112.56" y="261.81" width="14.29" height="14.07"/><rect class="cls-5" x="132.05" y="261.81" width="14.29" height="14.07"/><rect class="cls-5" x="151.55" y="261.81" width="14.29" height="14.07"/><rect class="cls-5" x="171.04" y="261.81" width="14.29" height="14.07"/><rect class="cls-5" x="190.54" y="261.81" width="14.29" height="14.07"/><rect class="cls-5" x="210.03" y="261.81" width="14.29" height="14.07"/><rect class="cls-5" x="229.53" y="261.81" width="14.29" height="14.07"/><rect class="cls-6" x="15.08" y="217.08" width="14.29" height="7.04"/><rect class="cls-6" x="34.57" y="217.08" width="14.29" height="7.04"/><rect class="cls-6" x="54.07" y="217.08" width="14.29" height="7.04"/><rect class="cls-6" x="73.57" y="217.08" width="14.29" height="7.04"/><rect class="cls-6" x="93.06" y="217.08" width="14.29" height="7.04"/><rect class="cls-6" x="112.56" y="217.08" width="14.29" height="7.04"/><rect class="cls-6" x="132.05" y="217.08" width="14.29" height="7.04"/><rect class="cls-6" x="151.55" y="217.08" width="14.29" height="7.04"/><rect class="cls-6" x="171.04" y="217.08" width="14.29" height="7.04"/><rect class="cls-6" x="190.54" y="217.08" width="14.29" height="7.04"/><rect class="cls-6" x="210.03" y="217.08" width="14.29" height="7.04"/><rect class="cls-6" x="229.53" y="217.08" width="14.29" height="7.04"/><rect class="cls-1" x="228.58" y="206.85" width="254.52" height="86.22"/><rect class="cls-2" x="228.58" y="217.08" width="243.63" height="7.04"/><rect class="cls-3" x="228.58" y="254.86" width="243.63" height="21.03"/><rect class="cls-7" x="472.2" y="206.85" width="10.9" height="86.22"/><rect class="cls-8" x="483.1" y="235.27" width="10.9" height="14.69"/><rect class="cls-9" x="483.1" y="249.96" width="10.9" height="14.69"/><rect class="cls-4" x="236.66" y="212.38" width="14.29" height="73.69"/><rect class="cls-4" x="256.15" y="212.38" width="14.29" height="73.69"/><rect class="cls-4" x="275.65" y="212.38" width="14.29" height="73.69"/><rect class="cls-4" x="295.14" y="212.38" width="14.29" height="73.69"/><rect class="cls-4" x="314.64" y="212.38" width="14.29" height="73.69"/><rect class="cls-4" x="334.13" y="212.38" width="14.29" height="73.69"/><rect class="cls-4" x="353.63" y="212.38" width="14.29" height="73.69"/><rect class="cls-4" x="373.12" y="212.38" width="14.29" height="73.69"/><rect class="cls-4" x="392.62" y="212.38" width="14.29" height="73.69"/><rect class="cls-4" x="412.11" y="212.38" width="14.29" height="73.69"/><rect class="cls-4" x="431.61" y="212.38" width="14.29" height="73.69"/><rect class="cls-4" x="451.11" y="212.38" width="14.29" height="73.69"/><rect class="cls-5" x="236.66" y="261.81" width="14.29" height="14.07"/><rect class="cls-5" x="256.15" y="261.81" width="14.29" height="14.07"/><rect class="cls-5" x="275.65" y="261.81" width="14.29" height="14.07"/><rect class="cls-5" x="295.14" y="261.81" width="14.29" height="14.07"/><rect class="cls-5" x="314.64" y="261.81" width="14.29" height="14.07"/><rect class="cls-5" x="334.13" y="261.81" width="14.29" height="14.07"/><rect class="cls-5" x="353.63" y="261.81" width="14.29" height="14.07"/><rect class="cls-5" x="373.12" y="261.81" width="14.29" height="14.07"/><rect class="cls-5" x="392.62" y="261.81" width="14.29" height="14.07"/><rect class="cls-5" x="412.11" y="261.81" width="14.29" height="14.07"/><rect class="cls-5" x="431.61" y="261.81" width="14.29" height="14.07"/><rect class="cls-5" x="451.11" y="261.81" width="14.29" height="14.07"/><rect class="cls-6" x="236.66" y="217.08" width="14.29" height="7.04"/><rect class="cls-6" x="256.15" y="217.08" width="14.29" height="7.04"/><rect class="cls-6" x="275.65" y="217.08" width="14.29" height="7.04"/><rect class="cls-6" x="295.14" y="217.08" width="14.29" height="7.04"/><rect class="cls-6" x="314.64" y="217.08" width="14.29" height="7.04"/><rect class="cls-6" x="334.13" y="217.08" width="14.29" height="7.04"/><rect class="cls-6" x="353.63" y="217.08" width="14.29" height="7.04"/><rect class="cls-6" x="373.12" y="217.08" width="14.29" height="7.04"/><rect class="cls-6" x="392.62" y="217.08" width="14.29" height="7.04"/><rect class="cls-6" x="412.11" y="217.08" width="14.29" height="7.04"/><rect class="cls-6" x="431.61" y="217.08" width="14.29" height="7.04"/><rect class="cls-6" x="451.11" y="217.08" width="14.29" height="7.04"/><rect class="cls-9" x="472.2" y="254.72" width="10.9" height="21.03"/><rect class="cls-10" x="472.2" y="217.08" width="10.9" height="7.04"/></svg>