<svg id="Layer_1" data-name="Layer 1" xmlns="http://www.w3.org/2000/svg" viewBox="0 0 500 500"><defs><style>.cls-1{fill:#5a6888;}.cls-2{fill:#8a9bb4;}.cls-3{fill:#3a4468;}.cls-4{fill:#bfcbdc;}.cls-5{fill:#edeeef;}.cls-6{fill:#8a9ab4;}.cls-7{fill:#69bc49;}.cls-8{fill:#3c8845;}.cls-9{fill:#eed7a9;}.cls-10{fill:#eceff0;}</style></defs><title>asset</title><rect class="cls-1" x="5.51" y="171.57" width="468.43" height="158.68"/><rect class="cls-2" x="5.51" y="190.39" width="448.37" height="12.95"/><rect class="cls-3" x="5.51" y="259.93" width="448.37" height="38.7"/><rect class="cls-4" x="453.88" y="171.57" width="20.06" height="158.68"/><rect class="cls-5" x="473.94" y="223.88" width="20.06" height="27.03"/><rect class="cls-6" x="473.94" y="250.91" width="20.06" height="27.03"/><rect class="cls-7" x="20.38" y="181.74" width="26.29" height="135.61"/><rect class="cls-7" x="56.26" y="181.74" width="26.29" height="135.61"/><rect class="cls-7" x="92.14" y="181.74" width="26.29" height="135.61"/><rect class="cls-7" x="128.02" y="181.74" width="26.29" height="135.61"/><rect class="cls-7" x="163.9" y="181.74" width="26.29" height="135.61"/><rect class="cls-7" x="199.78" y="181.74" width="26.29" height="135.61"/><rect class="cls-7" x="235.66" y="181.74" width="26.29" height="135.61"/><rect class="cls-7" x="271.54" y="181.74" width="26.29" height="135.61"/><rect class="cls-7" x="307.42" y="181.74" width="26.29" height="135.61"/><rect class="cls-7" x="343.3" y="181.74" width="26.29" height="135.61"/><rect class="cls-7" x="379.18" y="181.74" width="26.29" height="135.61"/><rect class="cls-8" x="20.38" y="272.73" width="26.29" height="25.9"/><rect class="cls-8" x="56.26" y="272.73" width="26.29" height="25.9"/><rect class="cls-8" x="92.14" y="272.73" width="26.29" height="25.9"/><rect class="cls-8" x="128.02" y="272.73" width="26.29" height="25.9"/><rect class="cls-8" x="163.9" y="272.73" width="26.29" height="25.9"/><rect class="cls-8" x="199.78" y="272.73" width="26.29" height="25.9"/><rect class="cls-8" x="235.66" y="272.73" width="26.29" height="25.9"/><rect class="cls-8" x="271.54" y="272.73" width="26.29" height="25.9"/><rect class="cls-8" x="307.42" y="272.73" width="26.29" height="25.9"/><rect class="cls-8" x="343.3" y="272.73" width="26.29" height="25.9"/><rect class="cls-8" x="379.18" y="272.73" width="26.29" height="25.9"/><rect class="cls-9" x="20.38" y="190.39" width="26.29" height="12.95"/><rect class="cls-9" x="56.26" y="190.39" width="26.29" height="12.95"/><rect class="cls-9" x="92.14" y="190.39" width="26.29" height="12.95"/><rect class="cls-9" x="128.02" y="190.39" width="26.29" height="12.95"/><rect class="cls-9" x="163.9" y="190.39" width="26.29" height="12.95"/><rect class="cls-9" x="199.78" y="190.39" width="26.29" height="12.95"/><rect class="cls-9" x="235.66" y="190.39" width="26.29" height="12.95"/><rect class="cls-9" x="271.54" y="190.39" width="26.29" height="12.95"/><rect class="cls-9" x="307.42" y="190.39" width="26.29" height="12.95"/><rect class="cls-9" x="343.3" y="190.39" width="26.29" height="12.95"/><rect class="cls-9" x="379.18" y="190.39" width="26.29" height="12.95"/><rect class="cls-6" x="453.88" y="259.67" width="20.06" height="38.7"/><rect class="cls-10" x="453.88" y="190.39" width="20.06" height="12.95"/></svg>