<svg id="Layer_1" data-name="Layer 1" xmlns="http://www.w3.org/2000/svg" viewBox="0 0 1920 1080"><defs><style>.cls-1{fill:#292944;}</style></defs><title>asset</title><path class="cls-1" d="M1696.52,768.55a24.07,24.07,0,0,1-24,24H1294.91a24,24,0,0,0,0,48h127a24,24,0,0,1,0,48H1134.45V649.36h406.89a24,24,0,0,1,0,48H1367.58a24.15,24.15,0,0,0-11,6.28,23.82,23.82,0,0,0-7,16.92,24.09,24.09,0,0,0,24,24h299A24.05,24.05,0,0,1,1696.52,768.55Z"/><path class="cls-1" d="M1799,577.45a24.07,24.07,0,0,1-24,24H1397.4a24,24,0,1,0,0,48h127a24,24,0,0,1,0,48H1236.93V458.26h406.89a24,24,0,0,1,0,48H1470.06a24.15,24.15,0,0,0-11,6.28,23.82,23.82,0,0,0-7,16.92,24.09,24.09,0,0,0,24,24h299A24.05,24.05,0,0,1,1799,577.45Z"/><path class="cls-1" d="M758.81,793.48V458H416.27a24,24,0,0,0,0,48H570.58a24,24,0,1,1,0,48H372.51a24,24,0,0,0-16.95,41,23.81,23.81,0,0,0,12,6.52h82.32a23.28,23.28,0,0,1,5,.53,24,24,0,0,1-5,47.48H115a24.11,24.11,0,0,0-24,24,24.12,24.12,0,0,0,24,24H287.61a24,24,0,1,1,0,48H266.52a24,24,0,0,0,0,48Z"/><path class="cls-1" d="M246.31,769.36a24.07,24.07,0,0,1,24-24H647.91a24,24,0,1,0,0-48h-127a24,24,0,0,1,0-48H808.37V888.55H401.49a24,24,0,0,1,0-48H575.24a24.13,24.13,0,0,0,11-6.27,24,24,0,0,0-17-40.93h-299A24.05,24.05,0,0,1,246.31,769.36Z"/><rect class="cls-1" x="758.91" y="457.64" width="478.16" height="431.36"/></svg>