<svg id="Layer_1" data-name="Layer 1" xmlns="http://www.w3.org/2000/svg" viewBox="0 0 500 500"><defs><style>.cls-1{fill:#1e1e1e;}.cls-2{fill:#b4b4b5;}.cls-3{fill:#787979;}.cls-4{fill:#3c3c3c;}.cls-5{fill:#5a5b5b;}.cls-6{fill:#b875b0;}.cls-7{fill:#969595;}.cls-8{fill:#83d3ee;}.cls-9{fill:#bbe2df;}.cls-10{fill:#6186c4;}</style></defs><title>Design Assets</title><rect class="cls-1" x="28.4" y="245.83" width="436.36" height="20.78"/><rect class="cls-2" x="54.11" y="170.68" width="384.93" height="20.78"/><rect class="cls-2" x="137.1" y="153.77" width="218.95" height="10.39"/><rect class="cls-3" x="28.4" y="191.46" width="436.36" height="20.78"/><rect class="cls-4" x="48.92" y="245.48" width="395.32" height="20.78"/><rect class="cls-5" x="74.61" y="245.48" width="343.94" height="20.78"/><rect class="cls-1" x="48.92" y="266.61" width="395.32" height="20.78"/><rect class="cls-4" x="61.24" y="266.61" width="370.68" height="20.78"/><rect class="cls-4" x="83" y="285.31" width="327.15" height="20.78"/><rect class="cls-5" x="8.85" y="212.24" width="484.15" height="33.25"/><rect class="cls-6" x="35.86" y="212.24" width="33.25" height="33.25"/><rect class="cls-6" x="111.7" y="212.24" width="33.25" height="33.25"/><rect class="cls-6" x="223.39" y="212.24" width="33.25" height="33.25"/><rect class="cls-6" x="292.48" y="212.24" width="33.25" height="33.25"/><rect class="cls-6" x="377.68" y="212.24" width="33.25" height="33.25"/><rect class="cls-6" x="442.61" y="212.24" width="33.25" height="33.25"/><rect class="cls-7" x="103.46" y="245.48" width="286.23" height="20.78"/><rect class="cls-3" x="103.46" y="266.61" width="286.23" height="20.78"/><rect class="cls-5" x="103.46" y="285.31" width="286.23" height="20.78"/><rect class="cls-6" x="103.46" y="306.09" width="286.23" height="6.51"/><rect class="cls-6" x="103.46" y="164.16" width="286.23" height="6.51"/><rect class="cls-1" x="74.61" y="170.68" width="4.37" height="20.78"/><rect class="cls-1" x="94.71" y="170.68" width="4.37" height="20.78"/><rect class="cls-1" x="114.81" y="170.68" width="4.37" height="20.78"/><rect class="cls-1" x="134.92" y="170.68" width="4.37" height="20.78"/><rect class="cls-1" x="155.02" y="170.68" width="4.37" height="20.78"/><rect class="cls-1" x="175.12" y="170.68" width="4.37" height="20.78"/><rect class="cls-1" x="195.23" y="170.68" width="4.37" height="20.78"/><rect class="cls-1" x="215.33" y="170.68" width="4.37" height="20.78"/><rect class="cls-1" x="235.43" y="170.68" width="4.37" height="20.78"/><rect class="cls-1" x="255.54" y="170.68" width="4.37" height="20.78"/><rect class="cls-1" x="275.64" y="170.68" width="4.37" height="20.78"/><rect class="cls-1" x="295.74" y="170.68" width="4.37" height="20.78"/><rect class="cls-1" x="315.85" y="170.68" width="4.37" height="20.78"/><rect class="cls-1" x="335.95" y="170.68" width="4.37" height="20.78"/><rect class="cls-1" x="356.06" y="170.68" width="4.37" height="20.78"/><rect class="cls-1" x="376.16" y="170.68" width="4.37" height="20.78"/><rect class="cls-1" x="396.26" y="170.68" width="4.37" height="20.78"/><rect class="cls-1" x="416.37" y="170.68" width="4.37" height="20.78"/><rect class="cls-8" x="144.95" y="124.22" width="205.19" height="30.09"/><rect class="cls-8" x="162.63" y="106.77" width="169.84" height="17.45"/><rect class="cls-8" x="181.76" y="93.53" width="131.58" height="13.57"/><rect class="cls-8" x="221.99" y="80.29" width="51.12" height="13.57"/><rect class="cls-9" x="181.76" y="93.53" width="26.57" height="6.79"/><rect class="cls-9" x="181.76" y="100.32" width="19.3" height="6.79"/><rect class="cls-9" x="162.63" y="106.77" width="34.78" height="6.79"/><rect class="cls-9" x="162.63" y="112.27" width="26.49" height="6.79"/><rect class="cls-10" x="295.86" y="146.99" width="54.28" height="7.33"/><rect class="cls-10" x="303.68" y="140.53" width="46.46" height="7.33"/><rect class="cls-10" x="311.22" y="133.2" width="38.93" height="7.33"/><rect class="cls-10" x="311.22" y="129.47" width="38.93" height="3.74"/><rect class="cls-10" x="319.65" y="124.22" width="30.49" height="5.24"/><rect class="cls-10" x="322.7" y="118.98" width="9.76" height="5.24"/><rect class="cls-10" x="326.24" y="106.77" width="6.23" height="13.09"/><rect class="cls-9" x="162.63" y="119.06" width="19.13" height="5.17"/><rect class="cls-9" x="144.95" y="124.22" width="32.36" height="7.92"/><rect class="cls-9" x="144.95" y="132.14" width="17.68" height="7.13"/></svg>