<svg id="Layer_1" data-name="Layer 1" xmlns="http://www.w3.org/2000/svg" viewBox="0 0 1920 1080"><defs><style>.cls-1{fill:#292944;}</style></defs><title>asset</title><path class="cls-1" d="M1036.08,472.64V737.86h270.78a19,19,0,0,0,0-37.93h-122a19,19,0,0,1,0-38h156.58a19,19,0,0,0,3.93-37.53H1280.3a19,19,0,0,1,0-38H1545a19.06,19.06,0,0,0,19-19,19.07,19.07,0,0,0-19-19H1408.57a19,19,0,1,1,0-37.93h16.67a19,19,0,0,0,0-38Z"/><path class="cls-1" d="M1360.21,793.78a19,19,0,0,1-19,19H1042.73a19,19,0,1,0,0,38h100.41a19,19,0,0,1,19,19,19,19,0,0,1-19,18.95H915.88V699.56h321.65a19,19,0,0,1,0,37.93H1100.18a19,19,0,0,0,4.73,37.32h236.35A19,19,0,0,1,1360.21,793.78Z"/><path class="cls-1" d="M1441.23,415.71a19,19,0,0,1-19,19H1123.74a19,19,0,0,0,0,37.95h100.41a19,19,0,0,1,19,19,19,19,0,0,1-19,18.95H996.89V321.49h321.66a19,19,0,0,1,0,37.93H1181.19a19,19,0,0,0,4.74,37.32h236.34A19,19,0,0,1,1441.23,415.71Z"/><path class="cls-1" d="M618.92,737.49V472.28H348.14a19,19,0,0,0,0,37.93h122a19,19,0,0,1,0,37.95H313.55a19,19,0,0,0-3.93,37.54H374.7a19,19,0,1,1,0,37.95H110a19.06,19.06,0,0,0-19,19,19.09,19.09,0,0,0,19,19H246.43a19,19,0,1,1,0,37.93H229.76a19,19,0,0,0,0,38Z"/><path class="cls-1" d="M294.79,416.35a19,19,0,0,1,18.95-19H612.27a19,19,0,1,0,0-37.95H511.86a19,19,0,0,1-19-19,19,19,0,0,1,19-18.95H739.12V510.57H417.47a19,19,0,0,1,0-37.93H554.82a19,19,0,0,0-4.73-37.31H313.74A19,19,0,0,1,294.79,416.35Z"/><path class="cls-1" d="M213.77,794.42a19.05,19.05,0,0,1,19-19H531.26a19,19,0,0,0,0-38H430.85a19,19,0,0,1-19-19,19,19,0,0,1,19-19H658.1V888.64H336.45a19,19,0,0,1,0-37.93H473.81a19,19,0,0,0-4.74-37.31H232.73A19,19,0,0,1,213.77,794.42Z"/><rect class="cls-1" x="658.1" y="321.51" width="400.16" height="567.1"/><rect class="cls-1" x="606.55" y="443.04" width="400.16" height="446.81"/></svg>